<?xml version="1.0" encoding="utf-8"?>
<!-- Generator: Adobe Illustrator 16.0.0, SVG Export Plug-In . SVG Version: 6.00 Build 0)  -->
<!DOCTYPE svg PUBLIC "-//W3C//DTD SVG 1.1//EN" "http://www.w3.org/Graphics/SVG/1.1/DTD/svg11.dtd">
<svg version="1.1" id="Capa_1" xmlns="http://www.w3.org/2000/svg" xmlns:xlink="http://www.w3.org/1999/xlink" x="0px" y="0px"
	 width="200px" height="49.667px" viewBox="0 83.833 200 49.667" enable-background="new 0 83.833 200 49.667" xml:space="preserve"
	>
<g>
	<polygon fill="#FFFFFF" points="139.088,125.016 136.125,114.813 133.719,114.813 137.374,127.055 140.796,127.055 
		144.451,114.813 142.045,114.813 	"/>
	<rect x="146.074" y="114.813" fill="#FFFFFF" width="2.313" height="12.241"/>
	<path fill="#FFFFFF" d="M154.082,122.512l1.707-5.793l1.672,5.793H154.082z M154.174,114.813l-3.859,12.241h2.427l0.769-2.539
		h4.545l0.789,2.539h2.428l-3.859-12.241H154.174z"/>
	<g>
		<path fill="#FFFFFF" d="M163.105,127.055c0,0.77-0.162,0.883-1.559,2.223l1.375,1.56c1.983-1.693,2.498-2.314,2.498-3.585v-12.438
			h-2.314V127.055L163.105,127.055z"/>
	</g>
	<polygon fill="#FFFFFF" points="168.088,127.055 175.588,127.055 175.588,125.016 170.408,125.016 170.408,121.855 
		175.186,121.855 175.186,119.809 170.408,119.809 170.408,116.853 175.588,116.853 175.588,114.813 168.088,114.813 	"/>
	<g>
		<path fill="#FFFFFF" d="M182.149,119.957c-2.117-0.516-2.152-0.551-2.152-1.947c0-1.065,0.275-1.397,1.842-1.397
			c1.065,0,2.258,0.148,3.273,0.367l0.255-1.947c-1.215-0.275-2.498-0.402-3.564-0.402c-3.104,0-4.119,1.101-4.119,3.33
			c0,2.59,0.401,3.161,3.365,3.824c2.208,0.479,2.243,0.586,2.243,1.948c0,1.178-0.274,1.523-1.947,1.523
			c-1.214,0-2.313-0.219-3.457-0.572l-0.402,1.82c0.812,0.389,2.427,0.734,3.824,0.734c3.62,0,4.304-1.192,4.304-3.514
			C185.606,121.283,185.444,120.747,182.149,119.957"/>
	</g>
	<polygon fill="#FFFFFF" points="30.826,97.682 30.826,109.754 19.946,109.754 19.946,97.682 14.394,97.682 14.394,127.013 
		19.946,127.013 19.946,114.637 30.826,114.637 30.826,127.013 36.372,127.013 36.372,97.682 	"/>
	<g>
		<path fill="#FFFFFF" d="M51.739,122.08c-1.016,0.572-2.47,1.102-4.05,1.102c-1.672,0-2.159-0.664-2.159-2.159
			c0-1.63,0.487-2.116,2.244-2.116h3.965V122.08z M48.395,105.126c-2.378,0-5.327,0.396-7.352,1.017l0.663,4.092
			c1.891-0.396,4.008-0.664,5.948-0.664c3.437,0,4.092,0.84,4.092,3.219v2.243h-5.15c-4.36,0-6.251,1.672-6.251,6.032
			c0,3.697,1.672,6.386,5.595,6.386c2.159,0,4.445-0.614,6.385-1.892l0.395,1.454h4.403V112.88
			C57.116,107.504,55.133,105.126,48.395,105.126"/>
	</g>
	<polygon fill="#FFFFFF" points="61.292,127.013 66.669,127.013 66.669,96.052 61.292,96.807 	"/>
	<g>
		<path fill="#FFFFFF" d="M79.701,109.754c1.059,0,2.992,0.177,4.445,0.572l0.663-4.402c-1.587-0.529-3.747-0.791-5.242-0.791
			c-6.738,0-9.25,2.47-9.25,8.234v5.855c0,5.771,2.512,8.234,9.25,8.234c1.764,0,3.831-0.311,5.242-0.79l-0.663-4.403
			c-1.538,0.396-3.083,0.572-4.445,0.572c-3.083,0-4.007-0.925-4.007-3.57v-5.948C75.693,110.679,76.618,109.754,79.701,109.754"/>
		<path fill="#FFFFFF" d="M100.176,119.174c0,2.42-1.101,3.697-3.965,3.697c-2.864,0-3.965-1.277-3.965-3.697v-5.771
			c0-2.42,1.101-3.697,3.965-3.697c2.865,0,3.965,1.277,3.965,3.697V119.174z M96.218,105.126c-7.352,0-9.335,4.05-9.335,8.452v5.42
			c0,4.402,1.983,8.452,9.335,8.452s9.334-4.05,9.334-8.452v-5.42C105.553,109.176,103.57,105.126,96.218,105.126"/>
		<path fill="#FFFFFF" d="M122.416,105.126c-2.512,0-5.898,0.925-8.587,2.243l-0.529-1.806h-4.093v21.449h5.37v-14.888
			c1.94-1.016,4.269-1.807,5.595-1.807c1.234,0,1.715,0.572,1.715,1.715v14.973h5.377v-15.537
			C127.264,107.638,125.986,105.126,122.416,105.126"/>
		<path fill="#FFFFFF" d="M100,100.314L100,100.314l10.386-10.386c-1.912-1.912-5.017-1.912-6.929,0l-10.386,10.386
			C94.983,102.227,98.088,102.227,100,100.314"/>
		<path fill="#FFFFFF" d="M94.8,95.121l-1.729-1.729c-1.912-1.912-5.017-1.912-6.929,0l5.193,5.193L94.8,95.121z"/>
	</g>
</g>
</svg>
